<svg xmlns="http://www.w3.org/2000/svg" viewBox="0 0 640 480"><g fill-rule="evenodd"><path fill="#009b3a" d="M0 0h640v480H0z"/><path fill="#ffdf00" d="M320 72l304 168-304 168L16 240z"/><circle cx="320" cy="240" r="80" fill="#3e4095"/><path d="M392.5 240a72.5 72.5 0 1 1-145 0 72.5 72.5 0 0 1 145 0z" fill="#fff"/><path d="M320 160a80 80 0 0 1 80 80c0 44.2-35.8 80-80 80s-80-35.8-80-80a80 80 0 0 1 80-80zm0 8a72 72 0 1 0 0 144 72 72 0 0 0 0-144z" fill="#3e4095"/><path d="M256 240c0-35.3 28.7-64 64-64s64 28.7 64 64-28.7 64-64 64-64-28.7-64-64zm64-56a56 56 0 1 0 0 112 56 56 0 0 0 0-112z" fill="#ffdf00"/><path d="M320 176a64 64 0 1 1 0 128 64 64 0 0 1 0-128zm0 8a56 56 0 1 0 0 112 56 56 0 0 0 0-112z" fill="#009b3a"/><path d="M320 192a48 48 0 1 1 0 96 48 48 0 0 1 0-96zm0 8a40 40 0 1 0 0 80 40 40 0 0 0 0-80z" fill="#fff"/><path d="M320 208a32 32 0 1 1 0 64 32 32 0 0 1 0-64zm0 8a24 24 0 1 0 0 48 24 24 0 0 0 0-48z" fill="#3e4095"/></g></svg>